<svg xmlns="http://www.w3.org/2000/svg" viewBox="0 0 232 228.89"><defs><style>.cls-1{fill:#fff;}.cls-2{fill:#2e7bbe;}.cls-2,.cls-3,.cls-4{isolation:isolate;opacity:0.9;}.cls-3{fill:#6fc17c;}.cls-4{fill:#29b3d1;}</style></defs><g id="Layer_2" data-name="Layer 2"><g id="Layer_1-2" data-name="Layer 1"><path class="cls-1" d="M116,0C52.6,0,0,51.35,0,114.41a113.67,113.67,0,0,0,42.61,88.32A116,116,0,0,0,232,114.41C232,51.35,179.4,0,116,0Z"/><path class="cls-2" d="M171.07,133.19,116,153.53,61.39,133.35A64.37,64.37,0,0,1,82,113.14a3.78,3.78,0,0,1,3.35-.33L116,124.12l31-11.54a3.85,3.85,0,0,1,3.34.28A65.47,65.47,0,0,1,171.07,133.19Z"/><circle class="cls-2" cx="116" cy="68.99" r="39.95"/><path class="cls-3" d="M116,153.53v75.31a116.57,116.57,0,0,1-73.37-26.11V126.41l18.78,6.92Z"/><path class="cls-4" d="M189.37,126.41v76.32A116.67,116.67,0,0,1,116,228.84V153.53L171,133.19Z"/></g></g></svg>